<?xml version="1.0" standalone="no"?>
<!DOCTYPE svg PUBLIC "-//W3C//DTD SVG 20010904//EN"
 "http://www.w3.org/TR/2001/REC-SVG-20010904/DTD/svg10.dtd">
<svg version="1.0" xmlns="http://www.w3.org/2000/svg"
 width="1024.000000pt" height="1024.000000pt" viewBox="0 0 1024.000000 1024.000000"
 preserveAspectRatio="xMidYMid meet">
<metadata>
Created by potrace 1.11, written by Peter Selinger 2001-2013
</metadata>
<g transform="translate(0.000000,1024.000000) scale(0.100000,-0.100000)"
fill="#000000" stroke="none">
<path d="M0 5120 l0 -5120 5120 0 5120 0 0 5120 0 5120 -5120 0 -5120 0 0
-5120z m7700 1610 l0 -470 -253 0 -253 0 -35 138 -36 137 -551 3 c-304 1 -552
0 -552 -2 0 -2 -25 -208 -55 -457 -31 -249 -54 -458 -53 -465 2 -8 24 0 62 23
266 157 623 195 971 103 351 -93 613 -352 740 -733 94 -280 112 -681 45 -972
-89 -386 -345 -716 -669 -862 -299 -134 -691 -169 -1050 -91 -355 76 -680 289
-834 546 -84 139 -137 334 -137 502 l0 78 73 6 c64 5 661 36 698 36 12 0 18
-22 27 -88 22 -162 69 -261 169 -352 91 -83 192 -124 332 -136 143 -12 294 29
392 106 53 43 125 154 160 250 48 133 62 240 56 430 -7 198 -27 293 -93 428
-104 215 -278 313 -529 298 -182 -10 -290 -52 -380 -146 -29 -32 -66 -83 -82
-114 -24 -50 -31 -56 -58 -56 -42 -1 -689 42 -693 46 -4 3 227 2253 233 2272
4 9 248 12 1180 12 l1175 0 0 -470z m-3710 -1295 l0 -1755 23 -5 c12 -2 159
-20 327 -40 168 -20 315 -38 328 -41 l22 -4 0 -245 0 -245 -1105 0 -1105 0 0
245 c0 135 1 245 3 246 1 0 155 19 342 43 l340 41 3 1388 2 1387 -350 0 -350
0 0 235 c0 129 3 235 8 235 4 1 333 61 732 134 399 74 737 134 753 135 l27 1
0 -1755z"/>
</g>
</svg>
