<?xml version="1.0" standalone="no"?>
<!DOCTYPE svg PUBLIC "-//W3C//DTD SVG 20010904//EN"
 "http://www.w3.org/TR/2001/REC-SVG-20010904/DTD/svg10.dtd">
<svg version="1.0" xmlns="http://www.w3.org/2000/svg"
 width="1024.000000pt" height="1024.000000pt" viewBox="0 0 1024.000000 1024.000000"
 preserveAspectRatio="xMidYMid meet">
<metadata>
Created by potrace 1.11, written by Peter Selinger 2001-2013
</metadata>
<g transform="translate(0.000000,1024.000000) scale(0.100000,-0.100000)"
fill="#000000" stroke="none">
<path d="M5 10228 c-3 -7 -4 -2310 -3 -5118 l3 -5105 5115 0 5115 0 0 5115 0
5115 -5113 3 c-4085 2 -5114 0 -5117 -10z m4035 -4803 l0 -1755 23 -5 c12 -2
157 -21 322 -40 165 -20 310 -38 323 -40 l22 -5 0 -245 0 -245 -1100 0 -1100
0 0 245 c0 135 1 245 3 246 1 0 155 19 342 42 l340 42 3 1388 2 1387 -350 0
-350 0 0 234 0 234 118 21 c977 180 1361 249 1380 250 l22 1 0 -1755z m3700
1290 l0 -465 -252 2 -253 3 -36 135 -36 135 -551 3 -550 2 -6 -37 c-17 -116
-107 -876 -104 -888 2 -10 19 -4 61 21 187 110 421 164 662 151 272 -15 490
-89 677 -230 217 -163 368 -436 430 -777 29 -159 32 -529 5 -665 -86 -432
-320 -760 -663 -929 -163 -80 -317 -119 -547 -137 -482 -40 -922 106 -1217
401 -178 179 -262 374 -277 643 -3 67 -2 117 3 117 5 0 178 9 384 20 206 11
380 20 386 20 7 0 14 -29 18 -67 26 -254 157 -422 381 -489 92 -28 279 -25
364 5 173 61 280 193 343 422 20 76 23 105 22 294 0 194 -2 217 -26 307 -89
327 -286 482 -593 464 -184 -10 -291 -52 -384 -152 -32 -34 -69 -85 -82 -113
-16 -37 -28 -51 -43 -51 -12 0 -176 9 -365 22 l-343 22 5 40 c3 23 56 535 118
1139 l113 1097 1178 0 1178 0 0 -465z"/>
</g>
</svg>
